<?xml version="1.0" encoding="UTF-8" standalone="no"?>
<!-- Created with Inkscape (http://www.inkscape.org/) -->

<svg
   width="2000mm"
   height="2000mm"
   viewBox="0 0 2000 2000"
   version="1.1"
   id="svg1"
   xml:space="preserve"
   inkscape:version="1.3.2 (091e20ef0f, 2023-11-25)"
   sodipodi:docname="timer.svg"
   inkscape:export-filename="timer.png"
   inkscape:export-xdpi="96"
   inkscape:export-ydpi="96"
   xmlns:inkscape="http://www.inkscape.org/namespaces/inkscape"
   xmlns:sodipodi="http://sodipodi.sourceforge.net/DTD/sodipodi-0.dtd"
   xmlns="http://www.w3.org/2000/svg"
   xmlns:svg="http://www.w3.org/2000/svg"><sodipodi:namedview
     id="namedview1"
     pagecolor="#ffffff"
     bordercolor="#000000"
     borderopacity="0.25"
     inkscape:showpageshadow="2"
     inkscape:pageopacity="0.0"
     inkscape:pagecheckerboard="0"
     inkscape:deskcolor="#d1d1d1"
     inkscape:document-units="mm"
     inkscape:zoom="0.064331415"
     inkscape:cx="4943.1525"
     inkscape:cy="3831.7205"
     inkscape:window-width="1900"
     inkscape:window-height="1015"
     inkscape:window-x="1930"
     inkscape:window-y="55"
     inkscape:window-maximized="1"
     inkscape:current-layer="svg1" /><defs
     id="defs1" /><rect
     style="fill:#152028;fill-opacity:1;stroke-width:0.1;stroke-linecap:round;stroke-linejoin:round;stroke-dashoffset:33.7153;paint-order:markers fill stroke"
     id="rect44684"
     width="300.3071"
     height="301.37289"
     x="-0.17607583"
     y="-0.57260072"
     transform="matrix(6.6952548,0,0,6.6952548,0.377205,3.1744005)" /><g
     style="fill:#7f78c9;stroke-width:1.00006389;stroke-dasharray:none;fill-opacity:1"
     id="g1"
     transform="matrix(3.6517667,0,0,3.6517667,165.1426,162.99287)"><path
       d="M 332.229,90.04 346.467,62.881 319.897,48.951 305.67,76.087 C 286.052,67.622 264.795,62.238 242.5,60.564 V 30 h 48.269 V 0 H 164.231 V 30 H 212.5 v 30.563 c -22.295,1.674 -43.553,7.059 -63.171,15.523 L 135.103,48.95 108.533,62.88 122.772,90.04 C 67.055,124.958 30,186.897 30,257.5 30,366.576 118.424,455 227.5,455 336.576,455 425,366.576 425,257.5 425,186.896 387.944,124.958 332.229,90.04 Z M 355,272.5 H 212.5 V 130 h 30 V 242.5 H 355 Z"
       id="path1"
       style="stroke-width:1.00006389;stroke-dasharray:none;fill:#7f78c9;fill-opacity:1" /></g><rect
     style="fill:#0e4b47;fill-opacity:0;stroke:#1cb176;stroke-width:50.1876;stroke-linecap:round;stroke-linejoin:round;stroke-miterlimit:4;stroke-dasharray:none;stroke-dashoffset:33.7153;stroke-opacity:0.974181;paint-order:markers fill stroke"
     id="rect25406-3-8-7"
     width="229.14095"
     height="230.15294"
     x="1983.9363"
     y="140.08852"
     transform="matrix(0.90728682,0.42051235,-0.41360646,0.91045576,0,0)" /><ellipse
     style="fill:#213238;fill-opacity:0;stroke:#c26b7a;stroke-width:52.6802;stroke-linecap:round;stroke-linejoin:round;stroke-miterlimit:4;stroke-dasharray:none;stroke-dashoffset:33.7153;stroke-opacity:1;paint-order:markers fill stroke"
     id="path28206-1-5"
     cx="203.45435"
     cy="697.54016"
     rx="117.18349"
     ry="116.53224" /><ellipse
     style="fill:#c183c3;fill-opacity:1;stroke:none;stroke-width:5.7733;stroke-linecap:round;stroke-linejoin:round;stroke-miterlimit:4;stroke-dasharray:none;stroke-dashoffset:33.7153;stroke-opacity:1;paint-order:markers fill stroke"
     id="path32505-9-3"
     cx="237.58186"
     cy="32.605534"
     rx="21.136339"
     ry="20.022577"
     transform="matrix(6.6952548,0,0,6.6952548,0.37722141,3.1744005)" /><path
     sodipodi:type="star"
     style="fill:none;fill-opacity:1;stroke:#478bb8;stroke-width:4.69347;stroke-linecap:round;stroke-linejoin:round;stroke-miterlimit:4;stroke-dasharray:none;stroke-dashoffset:33.7153;stroke-opacity:1;paint-order:markers fill stroke"
     id="path34178-4-3-6-5"
     inkscape:flatsided="true"
     sodipodi:sides="6"
     sodipodi:cx="77.095886"
     sodipodi:cy="50.820477"
     sodipodi:r1="13.021324"
     sodipodi:r2="11.276798"
     sodipodi:arg1="0.38040038"
     sodipodi:arg2="0.90399916"
     inkscape:rounded="0"
     inkscape:randomized="0"
     d="M 89.186395,55.655193 78.954153,63.708522 66.863644,58.873806 65.005378,45.98576 75.23762,37.932431 87.328128,42.767147 Z"
     transform="matrix(7.3900832,-2.2892721,2.2892721,7.3900832,-369.16009,1502.5235)" /><g
     id="g25030-6-4-2-5-0-8-6"
     transform="matrix(11.092952,8.4600979,-8.4600979,11.092952,-2664.6262,-4692.2021)"><path
       style="fill:none;stroke:#e9bf4c;stroke-width:4.92891;stroke-linecap:round;stroke-linejoin:round;stroke-dasharray:none;stroke-opacity:1"
       d="m 379.7864,146.37206 -2.68063,15.23376"
       id="path22156-8-1-2-0-2-2-6-2" /><path
       style="fill:none;stroke:#e9bf4c;stroke-width:4.92891;stroke-linecap:round;stroke-linejoin:round;stroke-dasharray:none;stroke-opacity:1"
       d="m 373.03074,153.68021 16.22156,2.85745"
       id="path22158-7-0-2-5-9-8-0-91" /></g><g
     id="g25030-6-4-2-5-0-8-7"
     transform="matrix(3.1477148,-13.818404,13.818404,3.1477148,-1746.7591,6382.2632)"><path
       style="fill:none;stroke:#e9bf4c;stroke-width:4.92891;stroke-linecap:round;stroke-linejoin:round;stroke-dasharray:none;stroke-opacity:1"
       d="m 379.7864,146.37206 -2.68063,15.23376"
       id="path22156-8-1-2-0-2-2-6-5" /><path
       style="fill:none;stroke:#e9bf4c;stroke-width:4.92891;stroke-linecap:round;stroke-linejoin:round;stroke-dasharray:none;stroke-opacity:1"
       d="m 367.17301,152.14725 16.22156,2.85745"
       id="path22158-7-0-2-5-9-8-0-9" /></g><g
     inkscape:label="Layer 1"
     inkscape:groupmode="layer"
     id="layer1" /></svg>
